<?xml version="1.0" encoding="UTF-8" standalone="no"?>
<!-- Created with Inkscape (http://www.inkscape.org/) -->

<svg
   width="200"
   height="200"
   viewBox="0 0 52.916665 52.916666"
   version="1.1"
   id="svg1"
   inkscape:version="1.4.2 (ebf0e940, 2025-05-08)"
   sodipodi:docname="grid_tile.svg"
   xmlns:inkscape="http://www.inkscape.org/namespaces/inkscape"
   xmlns:sodipodi="http://sodipodi.sourceforge.net/DTD/sodipodi-0.dtd"
   xmlns="http://www.w3.org/2000/svg"
   xmlns:svg="http://www.w3.org/2000/svg">
  <sodipodi:namedview
     id="namedview1"
     pagecolor="#ffffff"
     bordercolor="#000000"
     borderopacity="0.25"
     inkscape:showpageshadow="2"
     inkscape:pageopacity="0.0"
     inkscape:pagecheckerboard="0"
     inkscape:deskcolor="#d1d1d1"
     inkscape:document-units="px"
     inkscape:zoom="1.6808206"
     inkscape:cx="118.39455"
     inkscape:cy="103.22339"
     inkscape:window-width="1512"
     inkscape:window-height="854"
     inkscape:window-x="0"
     inkscape:window-y="38"
     inkscape:window-maximized="1"
     inkscape:current-layer="layer1" />
  <defs
     id="defs1">
    <inkscape:path-effect
       effect="tiling"
       id="path-effect1"
       is_visible="true"
       lpeversion="1.3.1"
       unit="px"
       seed="1;1"
       lpesatellites=""
       num_rows="4"
       num_cols="4"
       gapx="40"
       gapy="40"
       offset="0"
       offset_type="false"
       scale="0"
       rotate="0"
       mirrorrowsx="false"
       mirrorrowsy="false"
       mirrorcolsx="false"
       mirrorcolsy="false"
       mirrortrans="false"
       shrink_interp="false"
       split_items="false"
       link_styles="false"
       interpolate_scalex="false"
       interpolate_scaley="true"
       interpolate_rotatex="false"
       interpolate_rotatey="true"
       random_scale="false"
       random_rotate="false"
       random_gap_y="false"
       random_gap_x="false"
       transformorigin="" />
  </defs>
  <g
     inkscape:label="Layer 1"
     inkscape:groupmode="layer"
     id="layer1">
    <path
       style="fill:#808080;stroke-width:0.264583"
       id="path1"
       inkscape:path-effect="#path-effect1"
       sodipodi:type="arc"
       sodipodi:cx="7.9375"
       sodipodi:cy="7.9375"
       sodipodi:rx="1.3229166"
       sodipodi:ry="1.3229166"
       d="m 9.2604166,7.9375 c 0,0.7306267 -0.5922899,1.3229166 -1.3229166,1.3229166 -0.7306267,0 -1.3229166,-0.5922899 -1.3229166,-1.3229166 0,-0.7306267 0.5922899,-1.3229166 1.3229166,-1.3229166 0.7306267,0 1.3229166,0.5922899 1.3229166,1.3229166 z m 13.2291664,0 c 0,0.7306267 -0.59229,1.3229166 -1.322917,1.3229166 -0.730626,0 -1.322916,-0.5922899 -1.322916,-1.3229166 0,-0.7306267 0.59229,-1.3229166 1.322916,-1.3229166 0.730627,0 1.322917,0.5922899 1.322917,1.3229166 z m 13.229166,0 c 0,0.7306267 -0.59229,1.3229166 -1.322916,1.3229166 -0.730627,0 -1.322917,-0.5922899 -1.322917,-1.3229166 0,-0.7306267 0.59229,-1.3229166 1.322917,-1.3229166 0.730626,0 1.322916,0.5922899 1.322916,1.3229166 z m 13.229166,0 c 0,0.7306267 -0.59229,1.3229166 -1.322916,1.3229166 -0.730627,0 -1.322917,-0.5922899 -1.322917,-1.3229166 0,-0.7306267 0.59229,-1.3229166 1.322917,-1.3229166 0.730626,0 1.322916,0.5922899 1.322916,1.3229166 z M 9.2604166,21.166666 c 0,0.730627 -0.5922899,1.322917 -1.3229166,1.322917 -0.7306267,0 -1.3229166,-0.59229 -1.3229166,-1.322917 0,-0.730626 0.5922899,-1.322916 1.3229166,-1.322916 0.7306267,0 1.3229166,0.59229 1.3229166,1.322916 z m 13.2291664,0 c 0,0.730627 -0.59229,1.322917 -1.322917,1.322917 -0.730626,0 -1.322916,-0.59229 -1.322916,-1.322917 0,-0.730626 0.59229,-1.322916 1.322916,-1.322916 0.730627,0 1.322917,0.59229 1.322917,1.322916 z m 13.229166,0 c 0,0.730627 -0.59229,1.322917 -1.322916,1.322917 -0.730627,0 -1.322917,-0.59229 -1.322917,-1.322917 0,-0.730626 0.59229,-1.322916 1.322917,-1.322916 0.730626,0 1.322916,0.59229 1.322916,1.322916 z m 13.229166,0 c 0,0.730627 -0.59229,1.322917 -1.322916,1.322917 -0.730627,0 -1.322917,-0.59229 -1.322917,-1.322917 0,-0.730626 0.59229,-1.322916 1.322917,-1.322916 0.730626,0 1.322916,0.59229 1.322916,1.322916 z M 9.2604166,34.395833 c 0,0.730626 -0.5922899,1.322916 -1.3229166,1.322916 -0.7306267,0 -1.3229166,-0.59229 -1.3229166,-1.322916 0,-0.730627 0.5922899,-1.322917 1.3229166,-1.322917 0.7306267,0 1.3229166,0.59229 1.3229166,1.322917 z m 13.2291664,0 c 0,0.730626 -0.59229,1.322916 -1.322917,1.322916 -0.730626,0 -1.322916,-0.59229 -1.322916,-1.322916 0,-0.730627 0.59229,-1.322917 1.322916,-1.322917 0.730627,0 1.322917,0.59229 1.322917,1.322917 z m 13.229166,0 c 0,0.730626 -0.59229,1.322916 -1.322916,1.322916 -0.730627,0 -1.322917,-0.59229 -1.322917,-1.322916 0,-0.730627 0.59229,-1.322917 1.322917,-1.322917 0.730626,0 1.322916,0.59229 1.322916,1.322917 z m 13.229166,0 c 0,0.730626 -0.59229,1.322916 -1.322916,1.322916 -0.730627,0 -1.322917,-0.59229 -1.322917,-1.322916 0,-0.730627 0.59229,-1.322917 1.322917,-1.322917 0.730626,0 1.322916,0.59229 1.322916,1.322917 z M 9.2604166,47.624999 c 0,0.730626 -0.5922899,1.322916 -1.3229166,1.322916 -0.7306267,0 -1.3229166,-0.59229 -1.3229166,-1.322916 0,-0.730627 0.5922899,-1.322917 1.3229166,-1.322917 0.7306267,0 1.3229166,0.59229 1.3229166,1.322917 z m 13.2291664,0 c 0,0.730626 -0.59229,1.322916 -1.322917,1.322916 -0.730626,0 -1.322916,-0.59229 -1.322916,-1.322916 0,-0.730627 0.59229,-1.322917 1.322916,-1.322917 0.730627,0 1.322917,0.59229 1.322917,1.322917 z m 13.229166,0 c 0,0.730626 -0.59229,1.322916 -1.322916,1.322916 -0.730627,0 -1.322917,-0.59229 -1.322917,-1.322916 0,-0.730627 0.59229,-1.322917 1.322917,-1.322917 0.730626,0 1.322916,0.59229 1.322916,1.322917 z m 13.229166,0 c 0,0.730626 -0.59229,1.322916 -1.322916,1.322916 -0.730627,0 -1.322917,-0.59229 -1.322917,-1.322916 0,-0.730627 0.59229,-1.322917 1.322917,-1.322917 0.730626,0 1.322916,0.59229 1.322916,1.322917 z"
       transform="translate(-1.3229168,-1.3229168)" />
  </g>
</svg>
